{"title":"The Lodger 2009 DVDRip XviD AC3-LEGi0N","uid":5720936,"size":1468184052,"categoryP":"video","categoryS":"movies","magnet":"?xt=urn:btih:582c6081c5d877c55a2f3582e4554e43fe7d3f13&amp;dn=The+Lodger+2009+DVDRip+XviD+AC3-LEGi0N&amp;tr=udp%3A%2F%2Ftracker.openbittorrent.com%3A80&amp;tr=udp%3A%2F%2Fopen.demonii.com%3A1337&amp;tr=udp%3A%2F%2Ftracker.coppersurfer.tk%3A6969&amp;tr=udp%3A%2F%2Fexodus.desync.com%3A6969","seeders":0,"leechers":1,"uploader":"TvTeam","files":4,"time":1280287325,"description":". \n  &lt;a href=&quot;\nhttp://www.torrentday.com/&quot; rel=&quot;nofollow&quot; target=&quot;_NEW&quot;&gt;\nhttp://www.torrentday.com/&lt;/a&gt;        :     The Hottest Private Tracker On The Net!!!\n\n\n               www . TorrentDay . Com \n(((((((((((((= Enjoy No RAR releases =))))))))))))))))))))\n\n\n...................................NFO:....................................\n\n\n[b]The Lodger 2009 DVDRip XviD AC3-LEGi0N[/center]\n\n[img]http://leetleech.org/images/48874973695367351744.png[/img][b]\n[color=red]General[/color]\nFormat:AVI \nFile Size: 1.37 GiB\nDuration: 1h 35mn\nOverall bit rate: 2 035 Kbps\nIMDB Rating: 5.7/10  1 525 votes\nGenre: Crime : Drama : Thriller\nIMDb Link: http://www.imdb.com/title/tt0851530/\nSource: NTSC DVDR-EXT\n\n[color=red]Video[/color]\nFormat: MPEG-4 Visual\nFormat profile: Advanced Simple@L5\nFormat settings, BVOP: Yes\nFormat settings, QPel: NoFile Size\nFormat settings, GMC:  No warpoints\nFormat settings, Matrix: Default (H.263)\nMuxing mode: Packed bitstream\nCodec ID: XVID\nBit rate: 1 313Kbps\nWidth: 720 pixels\nHeight: 400 pixels\nDAR: 16:9\nFrame rate 23.976 fps\nResolution: 8 bits\nColorimetry: 4:2:0\nScan Type: Progressive\nBits/(Pixel*Frame): 0.231\nStream size: 1 07 GiB (78%)\n\n[color=red]Audio[/color]\nFormat: AC-3\nBit rate mode: Constant\nBit rate: 448 Kbps\nChannel(s): 6 channels\nSampling rate: 48.0 KHz\nStream size: 396 MiB (22%) \n\n[img]http://leetleech.org/images/89524873606771859129.png[/img]\n A couple rents out a room to a mysterous young man, who may\nor may not be guilty of a series of grisly neighborhood murders.\n\n[color=red]Tagline:[/color]\nEveryone Is Suspect\n\n[img]http://leetleech.org/images/84434050717770922575.png[/img]\nAlfred Molina  ... Chandler Manning\nHope Davis     ... Ellen Bunting  \nShane West     ... Street Wilkenson\nDonal Louge    ... Bunting\nSimon Baker    ... Malcolm\nMel Harris     ... Margaret\nRoy Werner     ... Dr. Stevens\n\n[color=red]GREETZ[/color]\nNoir | xXTHORNXx | bigimac | LUSi |\n\nkempas | KaN1vE | mike160 | skillz |\n\nLungbuster | Sheikh | DiLLoN1369  |\n\n0B5C3N3 | FLAWL3SS | AND ALL P2P![/b]\n\n[img]http://leetleech.org/images/95521316153253938506.png[/img]\n[center][img]http://leetleech.org/images/12755021538703799215.png[/img][/center]","torrent":{"xt":"urn:btih:582c6081c5d877c55a2f3582e4554e43fe7d3f13","amp;dn":"The+Lodger+2009+DVDRip+XviD+AC3-LEGi0N","amp;tr":["udp%3A%2F%2Ftracker.openbittorrent.com%3A80","udp%3A%2F%2Fopen.demonii.com%3A1337","udp%3A%2F%2Ftracker.coppersurfer.tk%3A6969","udp%3A%2F%2Fexodus.desync.com%3A6969"],"infoHash":"582c6081c5d877c55a2f3582e4554e43fe7d3f13","infoHashBuffer":{"type":"Buffer","data":[88,44,96,129,197,216,119,197,90,47,53,130,228,85,78,67,254,125,63,19]},"announce":[],"urlList":[]}}